<svg xmlns="http://www.w3.org/2000/svg" xmlns:xlink="http://www.w3.org/1999/xlink" width="100" zoomAndPan="magnify" viewBox="0 0 75 74.999997" height="100" preserveAspectRatio="xMidYMid meet" version="1.0"><defs><clipPath id="5351d1bd7b"><path d="M 0 18 L 75 18 L 75 56.90625 L 0 56.90625 Z M 0 18 " clip-rule="nonzero"/></clipPath></defs><g clip-path="url(#5351d1bd7b)"><path fill="#ff921b" d="M 51.867188 35.488281 C 51.589844 36.824219 51.238281 38.117188 50.429688 39.257812 C 49.027344 41.234375 47.191406 42.742188 45.214844 44.089844 C 44.839844 44.34375 44.710938 44.609375 44.714844 45.046875 C 44.769531 48.421875 44.792969 51.796875 44.855469 55.175781 C 44.863281 55.667969 44.714844 55.839844 44.238281 55.941406 C 38.875 57.105469 33.515625 56.941406 28.148438 55.984375 C 27.6875 55.902344 27.578125 55.730469 27.578125 55.285156 C 27.574219 51.625 27.546875 47.964844 27.515625 44.300781 C 27.515625 44.109375 27.476562 43.882812 27.375 43.726562 C 26.070312 41.703125 25.410156 39.472656 25.214844 37.09375 C 25.152344 36.34375 25.125 35.589844 25.082031 34.789062 C 24.011719 34.96875 22.976562 35.144531 21.902344 35.328125 C 21.929688 35.539062 21.949219 35.707031 21.96875 35.875 C 22.328125 38.5625 22.46875 41.25 22.007812 43.9375 C 21.746094 45.457031 21.320312 46.929688 20.359375 48.171875 C 19.355469 49.464844 18.070312 50.160156 16.394531 49.75 C 15.839844 49.617188 15.324219 49.320312 14.753906 49.082031 C 13.875 49.9375 12.8125 50.148438 11.65625 49.636719 C 11.175781 49.421875 10.742188 49.085938 10.3125 48.765625 C 10.003906 48.535156 9.746094 48.238281 9.46875 47.976562 C 8.476562 48.605469 7.796875 48.609375 6.867188 47.941406 C 6.472656 47.65625 6.109375 47.3125 5.792969 46.949219 C 4.800781 45.800781 4.109375 44.472656 3.535156 43.082031 C 3.136719 42.109375 2.792969 41.117188 2.421875 40.136719 C 1.492188 40.273438 1.238281 40.15625 0.789062 39.3125 C 0.285156 38.363281 0.0507812 37.332031 0.03125 36.265625 C 0.0117188 35.363281 0 34.429688 1.230469 34.304688 C 1.167969 33.5 1.089844 32.746094 1.066406 31.992188 C 1.039062 31.21875 1.035156 30.445312 1.074219 29.671875 C 1.136719 28.425781 1.3125 27.195312 1.804688 26.027344 C 2.164062 25.183594 2.78125 24.574219 3.691406 24.488281 C 4.417969 24.421875 4.644531 24.058594 4.882812 23.457031 C 5.632812 21.574219 6.679688 20.917969 8.539062 21.050781 C 8.675781 20.832031 8.8125 20.605469 8.957031 20.382812 C 10.257812 18.421875 12.183594 17.980469 14.207031 19.1875 C 15.453125 19.933594 16.378906 21.007812 17.195312 22.183594 C 18.8125 24.515625 19.867188 27.105469 20.679688 29.808594 C 20.75 30.042969 20.828125 30.273438 20.898438 30.488281 C 22.40625 30.246094 23.855469 30.019531 25.300781 29.761719 C 25.421875 29.738281 25.570312 29.519531 25.597656 29.375 C 25.835938 28.027344 26.042969 26.671875 26.28125 25.324219 C 26.507812 24.0625 27.058594 22.988281 28.203125 22.316406 C 29.222656 21.714844 30.277344 21.636719 31.332031 22.226562 C 32.214844 20.792969 34.601562 19.984375 36.523438 21.152344 C 38.292969 19.378906 40.726562 19.347656 42.9375 21.046875 C 43.371094 20.890625 43.773438 20.675781 44.195312 20.613281 C 45.976562 20.34375 47.386719 20.972656 48.398438 22.460938 C 49.03125 23.390625 49.371094 24.429688 49.621094 25.515625 C 49.683594 25.796875 49.855469 26.144531 50.082031 26.277344 C 51.570312 27.152344 52.464844 28.332031 52.238281 30.167969 C 52.882812 30.289062 53.484375 30.402344 54.101562 30.519531 C 54.160156 30.339844 54.207031 30.191406 54.25 30.042969 C 54.984375 27.570312 55.914062 25.179688 57.28125 22.980469 C 58.148438 21.589844 59.140625 20.308594 60.507812 19.367188 C 62.625 17.910156 64.730469 18.335938 66.117188 20.492188 C 66.242188 20.6875 66.367188 20.886719 66.484375 21.074219 C 67.90625 20.8125 68.925781 21.386719 69.644531 22.527344 C 69.941406 23 70.144531 23.539062 70.359375 24.0625 C 70.445312 24.277344 70.535156 24.382812 70.785156 24.394531 C 72.039062 24.460938 72.878906 25.09375 73.300781 26.277344 C 74.03125 28.347656 74.023438 30.488281 73.90625 32.640625 C 73.878906 33.1875 73.8125 33.734375 73.765625 34.277344 C 74.78125 34.644531 74.976562 34.914062 74.980469 36.015625 C 74.988281 37.085938 74.773438 38.117188 74.324219 39.089844 C 73.867188 40.082031 73.625 40.21875 72.542969 40.15625 C 72.503906 40.269531 72.46875 40.386719 72.421875 40.5 C 71.949219 41.703125 71.527344 42.929688 70.996094 44.105469 C 70.386719 45.445312 69.625 46.703125 68.488281 47.683594 C 67.445312 48.578125 66.699219 48.648438 65.527344 47.996094 C 62.953125 50.265625 62.210938 50.410156 60.160156 49.054688 C 60.023438 49.132812 59.890625 49.21875 59.753906 49.296875 C 58 50.273438 56.226562 50.03125 54.9375 48.488281 C 54.363281 47.804688 53.90625 46.96875 53.589844 46.128906 C 52.640625 43.628906 52.613281 41.007812 52.78125 38.378906 C 52.84375 37.375 52.972656 36.375 53.078125 35.328125 C 52.707031 35.265625 52.339844 35.203125 51.929688 35.128906 C 51.898438 35.304688 51.886719 35.398438 51.867188 35.488281 Z M 31.855469 29.425781 C 31.742188 29.148438 31.65625 28.863281 31.5625 28.578125 C 31.445312 28.21875 31.230469 28.101562 30.867188 28.289062 C 31.058594 28.925781 31.246094 29.566406 31.453125 30.199219 C 31.492188 30.324219 31.613281 30.425781 31.699219 30.539062 C 31.304688 30.496094 30.878906 30.542969 30.53125 30.394531 C 29.75 30.070312 29.324219 29.359375 28.921875 28.65625 C 28.820312 28.480469 28.714844 28.304688 28.566406 28.160156 C 28.988281 29.160156 29.371094 30.203125 30.359375 30.820312 C 30.898438 31.15625 31.480469 31.09375 32.039062 30.824219 C 32.410156 30.644531 32.566406 30.328125 32.480469 29.925781 C 32.078125 28.09375 31.671875 26.265625 31.261719 24.4375 C 31.230469 24.296875 31.171875 24.167969 31.121094 24.035156 C 30.675781 22.839844 29.941406 22.5625 28.824219 23.164062 C 28.199219 23.5 27.71875 24.117188 27.558594 24.730469 C 27.855469 24.464844 28.171875 24.0625 28.585938 23.847656 C 28.988281 23.636719 29.492188 23.613281 29.949219 23.503906 C 29.964844 23.554688 29.976562 23.601562 29.992188 23.648438 C 29.738281 23.761719 29.480469 23.855469 29.238281 23.984375 C 29.007812 24.105469 28.789062 24.257812 28.601562 24.484375 C 28.894531 24.433594 29.183594 24.378906 29.472656 24.328125 C 28.894531 24.789062 29.042969 25.300781 29.324219 25.816406 C 29.578125 26.289062 29.839844 26.757812 30.128906 27.210938 C 30.234375 27.378906 30.429688 27.492188 30.601562 27.644531 C 30.453125 27.839844 29.949219 27.925781 30.195312 28.4375 C 30.480469 27.910156 30.84375 27.691406 31.289062 27.769531 C 31.382812 27.785156 31.476562 27.808594 31.558594 27.851562 C 32.113281 28.132812 32.429688 29.953125 32 30.390625 C 31.921875 30.46875 31.789062 30.5 31.679688 30.550781 C 31.988281 30.214844 32.03125 29.84375 31.855469 29.425781 Z M 48.8125 31.148438 C 48.445312 31.472656 48.050781 31.546875 47.648438 31.480469 C 47.300781 31.425781 47.101562 31.570312 46.980469 31.855469 C 46.796875 32.289062 46.621094 32.726562 46.46875 33.171875 C 46.277344 33.730469 46.472656 34.230469 46.773438 34.691406 C 46.9375 34.941406 47.117188 35.183594 47.355469 35.515625 C 46.332031 35.113281 45.765625 34.414062 45.429688 33.492188 C 45.382812 33.5 45.339844 33.511719 45.292969 33.519531 C 45.347656 34.125 45.398438 34.726562 45.453125 35.34375 C 45.039062 34.894531 44.9375 34.332031 44.921875 33.734375 C 44.882812 33.726562 44.839844 33.71875 44.800781 33.710938 C 44.6875 34.066406 44.578125 34.417969 44.433594 34.875 C 44.355469 34.570312 44.292969 34.335938 44.25 34.167969 C 43.621094 34.203125 42.984375 34.238281 42.257812 34.28125 C 40.621094 36.675781 39.460938 37.167969 37.5625 36.160156 C 36.546875 36.863281 36.070312 37.925781 35.6875 39.054688 C 35.609375 37.867188 36.03125 36.84375 36.667969 35.980469 C 36.050781 35.980469 35.417969 36 34.785156 35.972656 C 34.082031 35.941406 33.519531 35.589844 33.101562 35.039062 C 32.894531 34.769531 32.699219 34.695312 32.386719 34.8125 C 30.910156 35.359375 29.429688 35.894531 27.960938 36.457031 C 27.847656 36.5 27.699219 36.730469 27.726562 36.820312 C 28.402344 38.929688 29.355469 40.871094 31.3125 42.105469 C 32.625 42.933594 34.097656 43.179688 35.625 43.09375 C 35.964844 43.074219 36.1875 43.15625 36.40625 43.402344 C 36.578125 43.597656 36.800781 43.746094 37.046875 43.890625 C 36.4375 43.21875 36.003906 42.480469 35.953125 41.515625 C 36.984375 42.976562 38.476562 43.125 39.996094 42.996094 C 42.933594 42.742188 45.4375 41.460938 47.773438 39.710938 C 49.867188 38.148438 50.808594 36.0625 51.007812 33.5625 C 51.117188 32.195312 51.144531 30.824219 51.203125 29.453125 C 51.207031 29.316406 51.183594 29.179688 51.164062 28.949219 C 51.015625 29.140625 50.921875 29.265625 50.824219 29.390625 C 51.226562 28.316406 50.546875 27.832031 49.78125 27.367188 C 49.460938 27.167969 49.1875 26.902344 48.894531 26.660156 C 48.503906 26.339844 48.09375 26.058594 47.53125 26.015625 C 47.496094 26.242188 47.476562 26.441406 47.433594 26.636719 C 47.257812 27.429688 46.65625 27.839844 45.894531 27.59375 C 45.40625 27.4375 44.921875 27.199219 44.511719 26.898438 C 43.726562 26.320312 43.550781 25.464844 43.96875 24.582031 C 44.101562 24.300781 44.277344 24.042969 44.433594 23.769531 C 43.914062 23.601562 43.535156 23.8125 43.320312 24.398438 C 43.054688 25.132812 43.140625 25.867188 43.386719 26.578125 C 44.015625 28.417969 45.328125 29.613281 47.089844 30.324219 C 47.859375 30.636719 48.671875 30.480469 49.476562 30.277344 C 49.183594 30.699219 48.878906 30.851562 47.921875 31.148438 C 48.195312 31.148438 48.472656 31.148438 48.8125 31.148438 Z M 11 48.488281 C 12.390625 49.601562 13.472656 49.5 14.703125 48.164062 C 14.910156 48.300781 15.125 48.449219 15.347656 48.589844 C 16.929688 49.589844 18.441406 49.382812 19.515625 48.019531 C 19.5625 47.960938 19.597656 47.894531 19.679688 47.765625 C 18.371094 48.125 17.488281 47.480469 16.695312 46.667969 C 15.363281 45.300781 14.492188 43.632812 13.769531 41.894531 C 11.753906 37.023438 10.742188 31.953125 10.925781 26.667969 C 10.972656 25.339844 11.132812 24.019531 11.609375 22.769531 C 11.828125 22.207031 12.128906 21.648438 12.5 21.171875 C 13.058594 20.457031 13.820312 20.304688 14.675781 20.601562 C 14.773438 20.636719 14.871094 20.664062 14.988281 20.65625 C 14.023438 19.753906 12.988281 18.960938 11.566406 19.222656 C 10.136719 19.488281 9.488281 20.644531 8.890625 21.832031 C 8.820312 21.828125 8.753906 21.839844 8.703125 21.820312 C 7.535156 21.351562 6.445312 21.898438 5.863281 22.957031 C 5.507812 23.601562 5.261719 24.304688 4.9375 25.035156 C 4.816406 25.035156 4.613281 25.035156 4.414062 25.035156 C 3.359375 25.042969 2.625 25.488281 2.335938 26.496094 C 2.058594 27.457031 1.808594 28.460938 1.761719 29.453125 C 1.515625 34.640625 2.523438 39.589844 4.808594 44.257812 C 5.242188 45.140625 5.878906 45.925781 6.457031 46.726562 C 6.65625 47 6.949219 47.21875 7.230469 47.417969 C 8 47.964844 8.585938 47.910156 9.265625 47.269531 C 9.347656 47.195312 9.410156 47.105469 9.460938 47.046875 C 10.007812 47.5625 10.472656 48.066406 11 48.488281 Z M 65.546875 47.085938 C 66.363281 48.015625 67.15625 48.058594 68.230469 47.050781 C 69.429688 45.925781 70.183594 44.496094 70.800781 43.007812 C 72.558594 38.773438 73.457031 34.363281 73.261719 29.769531 C 73.21875 28.726562 73 27.671875 72.71875 26.664062 C 72.382812 25.449219 71.652344 25.007812 70.386719 25.039062 C 70.261719 25.042969 70.136719 25.039062 70.023438 25.039062 C 69.8125 24.480469 69.636719 23.921875 69.390625 23.398438 C 69.007812 22.589844 68.488281 21.875 67.542969 21.714844 C 67.09375 21.640625 66.613281 21.75 66.09375 21.777344 C 65.464844 20.59375 64.78125 19.316406 63.144531 19.1875 C 61.804688 19.082031 60.835938 19.863281 59.828125 20.769531 C 59.976562 20.742188 60.015625 20.742188 60.050781 20.726562 C 61.195312 20.21875 62.097656 20.476562 62.792969 21.515625 C 63.367188 22.375 63.636719 23.34375 63.8125 24.34375 C 64.316406 27.203125 64.148438 30.0625 63.71875 32.914062 C 63.183594 36.453125 62.253906 39.882812 60.675781 43.113281 C 60.023438 44.449219 59.28125 45.742188 58.191406 46.773438 C 57.789062 47.15625 57.304688 47.5 56.792969 47.714844 C 56.386719 47.886719 55.882812 47.839844 55.445312 47.886719 C 56.105469 49.449219 58.003906 49.597656 60.300781 48.164062 C 60.402344 48.273438 60.503906 48.386719 60.609375 48.5 C 61.320312 49.269531 62.226562 49.515625 63.132812 49 C 63.832031 48.601562 64.421875 48.011719 65.050781 47.492188 C 65.203125 47.363281 65.316406 47.183594 65.445312 47.035156 C 65.496094 47.058594 65.53125 47.0625 65.546875 47.085938 Z M 43.125 54.914062 C 43.566406 54.816406 43.679688 54.632812 43.679688 54.1875 C 43.65625 51.046875 43.671875 47.90625 43.671875 44.769531 C 43.671875 44.675781 43.660156 44.585938 43.648438 44.441406 C 41.597656 45.285156 39.46875 45.453125 37.183594 45.445312 C 37.183594 47.035156 37.183594 48.601562 37.183594 50.164062 C 37.128906 50.164062 37.074219 50.164062 37.019531 50.164062 C 36.941406 48.773438 36.839844 47.378906 36.792969 45.988281 C 36.78125 45.535156 36.636719 45.367188 36.191406 45.414062 C 35.929688 45.441406 35.664062 45.417969 35.335938 45.417969 C 35.28125 48.046875 35.226562 50.65625 35.171875 53.269531 C 35.152344 53.273438 35.128906 53.273438 35.109375 53.277344 C 34.976562 52.175781 34.84375 51.074219 34.71875 49.976562 C 34.550781 48.535156 34.382812 47.09375 34.21875 45.652344 C 34.191406 45.390625 34.125 45.195312 33.804688 45.207031 C 33.679688 45.210938 33.554688 45.164062 33.429688 45.144531 C 32.425781 44.980469 32.382812 44.980469 32.367188 46.046875 C 32.332031 48.664062 32.34375 51.285156 32.335938 53.902344 C 32.335938 54.308594 32.335938 54.71875 32.335938 55.179688 C 36 55.472656 39.570312 55.695312 43.125 54.914062 Z M 38.984375 32.082031 C 39.027344 32.933594 39.066406 33.761719 39.109375 34.632812 C 38.820312 34.605469 38.609375 34.585938 38.394531 34.570312 C 38.378906 34.605469 38.363281 34.640625 38.347656 34.675781 C 38.683594 34.824219 39.019531 34.976562 39.351562 35.125 C 39.351562 35.148438 39.347656 35.167969 39.347656 35.191406 C 39.046875 35.171875 38.746094 35.148438 38.449219 35.128906 C 38.429688 35.164062 38.40625 35.199219 38.386719 35.230469 C 38.652344 35.371094 38.90625 35.570312 39.1875 35.632812 C 40.03125 35.820312 40.953125 35.390625 41.34375 34.613281 C 41.707031 33.898438 41.886719 33.164062 41.574219 32.34375 C 41.40625 31.902344 41.339844 31.378906 41.378906 30.90625 C 41.542969 28.910156 41.757812 26.921875 41.964844 24.933594 C 42.027344 24.367188 42.109375 23.804688 42.214844 23.25 C 42.277344 22.914062 42.402344 22.59375 42.515625 22.207031 C 42 21.535156 41.328125 20.996094 40.363281 20.960938 C 39.828125 20.941406 39.289062 20.941406 38.757812 20.964844 C 38.027344 20.988281 37.605469 21.449219 37.296875 22.078125 C 38.058594 21.191406 39 21 40.074219 21.320312 C 39.398438 21.421875 38.59375 21.207031 38.308594 22.035156 C 38.757812 22.035156 39.300781 22.035156 39.894531 22.035156 C 39.824219 22.089844 39.800781 22.117188 39.773438 22.125 C 38.53125 22.429688 38.4375 22.273438 38.378906 23.765625 C 38.300781 25.78125 38.363281 27.800781 38.371094 29.820312 C 38.371094 30.101562 38.402344 30.382812 38.417969 30.699219 C 38.828125 30.734375 39.226562 30.769531 39.636719 30.804688 C 39.101562 31.023438 38.601562 31.226562 38.101562 31.429688 C 38.117188 31.441406 38.132812 31.453125 38.144531 31.464844 C 38.773438 31.414062 39.402344 31.304688 40.03125 31.316406 C 40.761719 31.332031 40.980469 31.558594 41.070312 32.273438 C 41.136719 32.789062 41.175781 33.3125 41.148438 33.828125 C 41.117188 34.457031 40.785156 34.800781 40.121094 34.957031 C 40.75 34.683594 40.789062 34.148438 40.761719 33.589844 C 40.746094 33.273438 40.730469 32.960938 40.703125 32.644531 C 40.632812 31.832031 40.539062 31.734375 39.707031 31.78125 C 39.253906 31.808594 38.808594 31.933594 38.359375 32.011719 C 38.371094 32.0625 38.378906 32.117188 38.390625 32.167969 C 38.570312 32.140625 38.75 32.117188 38.984375 32.082031 Z M 34.605469 22.226562 C 33.914062 22.511719 33.214844 22.800781 32.511719 23.089844 C 32.53125 23.167969 32.550781 23.246094 32.566406 23.324219 C 33.046875 23.324219 33.527344 23.324219 34.082031 23.324219 C 33.515625 23.566406 33.03125 23.769531 32.550781 23.976562 C 32.558594 24.015625 32.566406 24.054688 32.574219 24.09375 C 32.699219 24.105469 32.824219 24.117188 32.953125 24.128906 C 33.316406 26.285156 33.675781 28.445312 34.039062 30.625 C 34.335938 30.625 34.601562 30.625 34.996094 30.625 C 34.445312 30.941406 33.949219 31.148438 33.726562 31.761719 C 34.886719 30.902344 35.902344 30.847656 36.390625 31.5625 C 37.03125 32.503906 36.984375 33.984375 36.25 34.410156 C 36.792969 33.785156 36.480469 33.140625 36.308594 32.515625 C 36.007812 31.433594 35.109375 31.21875 34.261719 32.011719 C 34.34375 32.082031 34.472656 32.144531 34.496094 32.230469 C 34.574219 32.550781 34.609375 32.878906 34.675781 33.203125 C 34.742188 33.507812 34.824219 33.808594 34.910156 34.148438 C 34.746094 34.148438 34.617188 34.148438 34.484375 34.148438 C 34.476562 34.175781 34.464844 34.207031 34.453125 34.238281 C 34.691406 34.363281 34.925781 34.488281 35.164062 34.613281 C 35.15625 34.632812 35.152344 34.652344 35.148438 34.671875 C 34.882812 34.613281 34.617188 34.558594 34.347656 34.503906 C 34.191406 35.019531 34.582031 35.195312 34.941406 35.261719 C 35.636719 35.390625 36.300781 35.222656 36.855469 34.777344 C 37.214844 34.488281 37.292969 34.0625 37.257812 33.613281 C 37.058594 30.847656 36.855469 28.078125 36.667969 25.308594 C 36.617188 24.566406 36.628906 23.824219 36.601562 23.082031 C 36.59375 22.933594 36.59375 22.746094 36.511719 22.636719 C 36.003906 21.96875 35.332031 21.589844 34.476562 21.644531 C 33.585938 21.703125 32.789062 21.964844 32.296875 22.796875 C 33.042969 22.460938 33.796875 22.183594 34.605469 22.226562 Z M 28.488281 30.253906 C 28.378906 30.160156 28.183594 30.105469 28.039062 30.117188 C 24.566406 30.480469 21.136719 31.101562 17.730469 31.851562 C 17.367188 31.929688 17.214844 32.101562 17.179688 32.4375 C 17.082031 33.359375 17.253906 34.222656 17.703125 35.035156 C 17.890625 35.375 18.121094 35.46875 18.515625 35.390625 C 20.945312 34.914062 23.371094 34.421875 25.816406 34.023438 C 27.574219 33.738281 29.355469 33.597656 31.125 33.394531 C 31.296875 33.375 31.46875 33.367188 31.65625 33.351562 C 31.710938 33.003906 31.558594 32.929688 31.261719 32.957031 C 27.65625 33.265625 24.089844 33.828125 20.550781 34.582031 C 19.933594 34.714844 19.3125 34.828125 18.703125 34.980469 C 18.332031 35.070312 18.082031 34.976562 17.941406 34.628906 C 17.78125 34.242188 17.640625 33.851562 17.523438 33.546875 C 17.871094 33.546875 18.167969 33.59375 18.445312 33.539062 C 20.921875 33.074219 23.390625 32.554688 25.878906 32.128906 C 27.199219 31.902344 28.542969 31.832031 29.878906 31.691406 C 29.960938 31.679688 30.046875 31.675781 30.042969 31.675781 C 29.542969 31.210938 29.027344 30.722656 28.488281 30.253906 Z M 52.242188 32.402344 C 52.246094 32.507812 52.390625 32.679688 52.496094 32.703125 C 53.945312 33.011719 55.394531 33.3125 56.851562 33.589844 C 57.03125 33.621094 57.238281 33.5 57.464844 33.441406 C 57.417969 33.644531 57.382812 33.875 57.3125 34.097656 C 57.027344 34.984375 56.847656 35.082031 55.957031 34.898438 C 54.796875 34.65625 53.640625 34.410156 52.480469 34.183594 C 52.324219 34.152344 52.144531 34.226562 51.976562 34.25 C 51.980469 34.3125 51.984375 34.378906 51.988281 34.441406 C 52.664062 34.582031 53.335938 34.722656 54.007812 34.863281 C 54.886719 35.042969 55.765625 35.242188 56.648438 35.394531 C 56.808594 35.421875 57.070312 35.332031 57.15625 35.207031 C 57.765625 34.34375 57.960938 33.367188 57.792969 32.332031 C 57.769531 32.167969 57.558594 31.933594 57.398438 31.898438 C 55.765625 31.542969 54.125 31.226562 52.488281 30.898438 C 52.429688 30.886719 52.367188 30.890625 52.230469 30.882812 C 52.230469 31.398438 52.214844 31.902344 52.242188 32.402344 Z M 46.917969 23.480469 C 46.957031 23.464844 47 23.445312 47.042969 23.429688 C 47.300781 24.085938 47.558594 24.742188 47.847656 25.476562 C 47.984375 25.523438 48.238281 25.605469 48.492188 25.6875 C 48.625 23.429688 46.46875 21.277344 44.410156 21.644531 C 44.050781 21.707031 43.714844 21.925781 43.410156 22.175781 C 43.703125 22.113281 43.996094 22.050781 44.285156 21.988281 C 43.53125 22.632812 43.433594 22.796875 43.496094 23.386719 C 44.535156 23.113281 45.644531 23.371094 47.066406 24.996094 C 47.015625 24.492188 46.964844 23.984375 46.917969 23.480469 Z M 54.242188 35.578125 C 54.160156 36.230469 54.066406 36.859375 54.003906 37.496094 C 53.789062 39.792969 53.6875 42.09375 54.246094 44.359375 C 54.371094 44.859375 54.566406 45.355469 54.820312 45.800781 C 55.421875 46.875 56.398438 47.0625 57.34375 46.265625 C 57.796875 45.882812 58.210938 45.421875 58.519531 44.921875 C 59.089844 44.007812 59.570312 43.035156 60.085938 42.085938 C 60.039062 42.058594 59.996094 42.035156 59.949219 42.007812 C 59.769531 42.355469 59.621094 42.722656 59.40625 43.042969 C 58.816406 43.914062 58.277344 44.839844 57.570312 45.609375 C 56.46875 46.8125 55.484375 46.5625 54.945312 45.023438 C 54.402344 43.480469 54.359375 41.863281 54.433594 40.257812 C 54.492188 38.921875 54.660156 37.589844 54.78125 36.257812 C 54.796875 36.085938 54.816406 35.917969 54.839844 35.707031 C 54.621094 35.660156 54.46875 35.628906 54.242188 35.578125 Z M 20.171875 35.703125 C 20.265625 36.515625 20.367188 37.308594 20.445312 38.101562 C 20.636719 40.117188 20.722656 42.136719 20.296875 44.132812 C 20.183594 44.675781 19.980469 45.226562 19.710938 45.714844 C 19.324219 46.425781 18.679688 46.589844 18.039062 46.09375 C 17.453125 45.632812 16.929688 45.066406 16.480469 44.472656 C 15.996094 43.835938 15.632812 43.109375 15.222656 42.429688 C 15.214844 42.441406 15.183594 42.472656 15.1875 42.488281 C 15.722656 43.773438 16.351562 45.007812 17.347656 46.007812 C 17.566406 46.226562 17.835938 46.414062 18.113281 46.558594 C 18.742188 46.890625 19.390625 46.820312 19.820312 46.257812 C 20.183594 45.78125 20.492188 45.21875 20.667969 44.648438 C 21.242188 42.78125 21.222656 40.851562 21.113281 38.925781 C 21.050781 37.828125 20.90625 36.734375 20.792969 35.578125 C 20.539062 35.628906 20.375 35.664062 20.171875 35.703125 Z M 62.675781 23.542969 C 62.5625 23.136719 62.390625 22.734375 62.171875 22.378906 C 61.652344 21.535156 60.765625 21.300781 59.984375 21.902344 C 59.359375 22.382812 58.789062 22.980469 58.324219 23.621094 C 57.144531 25.25 55.738281 28.679688 55.304688 30.765625 C 55.480469 30.804688 55.65625 30.84375 55.855469 30.890625 C 56.140625 30.019531 56.40625 29.164062 56.691406 28.320312 C 57.238281 26.71875 57.882812 25.160156 58.839844 23.757812 C 59.191406 23.246094 59.617188 22.753906 60.09375 22.355469 C 60.816406 21.753906 61.5625 21.886719 61.960938 22.742188 C 62.328125 23.53125 62.582031 24.394531 62.746094 25.25 C 62.921875 26.171875 62.933594 27.128906 63.027344 28.164062 C 63.105469 26.558594 63.101562 25.03125 62.675781 23.542969 Z M 12.453125 24.269531 C 12.550781 23.710938 12.796875 23.152344 13.085938 22.65625 C 13.511719 21.914062 14.199219 21.746094 14.832031 22.3125 C 15.46875 22.882812 16.039062 23.5625 16.488281 24.289062 C 17.652344 26.164062 18.335938 28.25 18.964844 30.351562 C 19.015625 30.519531 19.066406 30.683594 19.121094 30.863281 C 19.242188 30.851562 19.351562 30.847656 19.457031 30.828125 C 19.53125 30.816406 19.601562 30.785156 19.75 30.734375 C 19.414062 29.734375 19.117188 28.742188 18.746094 27.773438 C 18.039062 25.914062 17.246094 24.089844 15.875 22.597656 C 15.621094 22.320312 15.324219 22.066406 15.007812 21.871094 C 14.136719 21.347656 13.265625 21.539062 12.800781 22.445312 C 12.480469 23.066406 12.234375 23.761719 12.144531 24.449219 C 11.984375 25.675781 11.964844 26.917969 11.886719 28.15625 C 11.902344 28.152344 11.914062 28.152344 11.929688 28.152344 C 12.097656 26.855469 12.222656 25.554688 12.453125 24.269531 Z M 16.519531 29.511719 C 16.0625 29.492188 15.796875 29.832031 15.722656 30.195312 C 15.5625 31.007812 15.390625 31.839844 15.40625 32.65625 C 15.433594 34.136719 15.792969 35.5625 16.484375 36.878906 C 16.730469 37.347656 17.042969 37.804688 17.417969 38.171875 C 18.039062 38.792969 18.71875 38.542969 18.890625 37.675781 C 18.929688 37.464844 18.941406 37.253906 18.898438 37.019531 C 18.785156 37.273438 18.6875 37.535156 18.550781 37.773438 C 18.371094 38.089844 18.109375 38.144531 17.875 37.84375 C 17.671875 37.585938 17.480469 37.304688 17.351562 37.007812 C 16.519531 35.105469 16.097656 33.113281 16.125 31.035156 C 16.125 30.832031 16.148438 30.625 16.195312 30.425781 C 16.332031 29.792969 16.589844 29.707031 17.113281 30.105469 C 17.175781 30.15625 17.234375 30.207031 17.296875 30.253906 C 17.167969 29.871094 16.96875 29.527344 16.519531 29.511719 Z M 56.671875 38.453125 C 57.285156 38.667969 57.671875 38.175781 57.988281 37.746094 C 58.941406 36.453125 59.382812 34.953125 59.527344 33.386719 C 59.609375 32.492188 59.492188 31.574219 59.453125 30.667969 C 59.445312 30.515625 59.371094 30.363281 59.304688 30.222656 C 59.140625 29.875 58.96875 29.511719 58.511719 29.511719 C 58.054688 29.507812 57.839844 29.84375 57.644531 30.203125 C 57.6875 30.214844 57.71875 30.238281 57.734375 30.230469 C 57.996094 30.121094 58.257812 30.007812 58.519531 29.894531 C 58.636719 30.191406 58.835938 30.480469 58.859375 30.789062 C 58.984375 32.316406 58.691406 33.800781 58.285156 35.261719 C 58.117188 35.867188 57.867188 36.449219 57.640625 37.035156 C 57.574219 37.210938 57.492188 37.390625 57.371094 37.527344 C 57.199219 37.71875 56.984375 37.871094 56.785156 38.035156 C 56.621094 37.839844 56.441406 37.65625 56.292969 37.449219 C 56.207031 37.324219 56.175781 37.167969 56.121094 37.023438 C 56.097656 37.589844 56.039062 38.230469 56.671875 38.453125 Z M 44.179688 25.273438 C 44.128906 25.445312 44.253906 25.777344 44.40625 25.890625 C 44.96875 26.308594 45.554688 26.710938 46.179688 27.027344 C 46.632812 27.261719 47.207031 26.742188 47.125 26.148438 C 47.070312 25.785156 46.890625 25.378906 46.640625 25.113281 C 46.132812 24.585938 45.539062 24.140625 44.875 23.570312 C 44.59375 24.234375 44.34375 24.738281 44.179688 25.273438 Z M 42.914062 29.78125 C 42.914062 30.578125 42.914062 31.339844 42.914062 32.144531 C 42.78125 32.113281 42.652344 32.085938 42.40625 32.03125 C 42.566406 32.195312 42.660156 32.277344 42.734375 32.375 C 42.8125 32.476562 42.867188 32.59375 42.933594 32.703125 C 42.828125 32.765625 42.722656 32.824219 42.601562 32.890625 C 42.980469 33.175781 43.386719 33.121094 43.792969 32.953125 C 44.757812 32.554688 45.148438 31.582031 45.210938 30.722656 C 45.21875 30.625 45.082031 30.496094 44.984375 30.421875 C 44.816406 30.292969 44.621094 30.191406 44.472656 30.097656 C 44.414062 30.726562 44.371094 31.34375 44.277344 31.953125 C 44.253906 32.113281 44.070312 32.246094 43.90625 32.347656 C 44.378906 31.601562 44.179688 30.832031 44.023438 30.097656 C 43.894531 29.480469 42.984375 29.394531 42.332031 29.996094 C 42.589844 29.902344 42.730469 29.847656 42.914062 29.78125 Z M 73.324219 36.988281 C 73.539062 36.988281 73.734375 36.988281 73.984375 36.988281 C 73.726562 37.84375 73.765625 38.847656 72.785156 39.371094 C 73.035156 39.613281 73.191406 39.632812 73.386719 39.378906 C 73.539062 39.183594 73.667969 38.960938 73.765625 38.730469 C 74.175781 37.78125 74.378906 36.785156 74.316406 35.746094 C 74.28125 35.15625 74.207031 35.085938 73.675781 35 C 73.558594 35.65625 73.449219 36.289062 73.324219 36.988281 Z M 1.078125 36.996094 C 1.261719 36.996094 1.445312 36.996094 1.671875 36.996094 C 1.554688 36.304688 1.445312 35.671875 1.335938 35.027344 C 0.972656 34.960938 0.777344 35.105469 0.734375 35.449219 C 0.570312 36.824219 0.835938 38.113281 1.550781 39.300781 C 1.734375 39.605469 1.980469 39.625 2.300781 39.382812 C 1.613281 39.105469 1.078125 38.003906 1.078125 36.996094 Z M 42.230469 29.445312 C 42.6875 29.34375 43.132812 29.242188 43.589844 29.140625 C 43.339844 28.636719 43.070312 28.082031 42.78125 27.496094 C 42.5625 28.171875 42.957031 28.984375 42.230469 29.445312 Z M 42.230469 29.445312 " fill-opacity="1" fill-rule="nonzero"/></g><path fill="#ffffff" d="M 47.921875 31.148438 C 48.195312 31.148438 48.472656 31.148438 48.8125 31.148438 C 48.445312 31.472656 48.050781 31.546875 47.648438 31.480469 C 47.300781 31.425781 47.101562 31.570312 46.980469 31.855469 C 46.796875 32.289062 46.621094 32.726562 46.46875 33.171875 C 46.277344 33.730469 46.472656 34.230469 46.773438 34.691406 C 46.9375 34.941406 47.117188 35.183594 47.355469 35.515625 C 46.332031 35.113281 45.765625 34.414062 45.429688 33.492188 C 45.382812 33.5 45.339844 33.511719 45.292969 33.519531 C 45.347656 34.125 45.398438 34.726562 45.453125 35.34375 C 45.039062 34.894531 44.9375 34.332031 44.921875 33.734375 C 44.882812 33.726562 44.839844 33.71875 44.800781 33.710938 C 44.6875 34.066406 44.578125 34.417969 44.433594 34.875 C 44.355469 34.570312 44.292969 34.335938 44.25 34.167969 C 43.621094 34.203125 42.984375 34.238281 42.257812 34.28125 C 40.621094 36.675781 39.460938 37.167969 37.5625 36.160156 C 36.546875 36.863281 36.070312 37.925781 35.6875 39.054688 C 35.609375 37.867188 36.03125 36.84375 36.667969 35.980469 C 36.050781 35.980469 35.417969 36 34.785156 35.972656 C 34.082031 35.941406 33.519531 35.589844 33.101562 35.039062 C 32.894531 34.769531 32.699219 34.695312 32.386719 34.8125 C 30.910156 35.359375 29.429688 35.894531 27.960938 36.457031 C 27.847656 36.5 27.699219 36.730469 27.726562 36.820312 C 28.402344 38.929688 29.355469 40.871094 31.3125 42.105469 C 32.625 42.933594 34.097656 43.179688 35.625 43.09375 C 35.964844 43.074219 36.1875 43.15625 36.40625 43.402344 C 36.578125 43.597656 36.800781 43.746094 37.046875 43.890625 C 36.4375 43.21875 36.003906 42.480469 35.953125 41.515625 C 36.984375 42.976562 38.476562 43.125 39.996094 42.996094 C 42.933594 42.742188 45.4375 41.460938 47.773438 39.710938 C 49.867188 38.148438 50.808594 36.0625 51.007812 33.5625 C 51.117188 32.195312 51.144531 30.824219 51.203125 29.453125 C 51.207031 29.316406 51.183594 29.179688 51.164062 28.949219 C 51.015625 29.140625 50.921875 29.265625 50.824219 29.390625 C 51.226562 28.316406 50.546875 27.832031 49.78125 27.367188 C 49.460938 27.167969 49.1875 26.902344 48.894531 26.660156 C 48.503906 26.339844 48.09375 26.058594 47.53125 26.015625 C 47.496094 26.242188 47.476562 26.441406 47.433594 26.636719 C 47.257812 27.429688 46.65625 27.839844 45.894531 27.59375 C 45.40625 27.4375 44.921875 27.199219 44.511719 26.898438 C 43.726562 26.320312 43.550781 25.464844 43.96875 24.582031 C 44.101562 24.300781 44.277344 24.042969 44.433594 23.769531 C 43.914062 23.601562 43.535156 23.8125 43.320312 24.398438 C 43.054688 25.132812 43.140625 25.867188 43.386719 26.578125 C 44.015625 28.417969 45.328125 29.613281 47.089844 30.324219 C 47.859375 30.636719 48.671875 30.480469 49.476562 30.277344 C 49.183594 30.699219 48.878906 30.851562 47.921875 31.148438 Z M 47.921875 31.148438 " fill-opacity="1" fill-rule="nonzero"/><path fill="#ffffff" d="M 9.265625 47.269531 C 8.585938 47.910156 8 47.964844 7.230469 47.417969 C 6.953125 47.21875 6.65625 47 6.457031 46.726562 C 5.878906 45.925781 5.242188 45.140625 4.808594 44.257812 C 2.523438 39.589844 1.515625 34.640625 1.761719 29.453125 C 1.808594 28.460938 2.058594 27.457031 2.335938 26.496094 C 2.625 25.488281 3.359375 25.042969 4.414062 25.035156 C 4.613281 25.035156 4.816406 25.035156 4.941406 25.035156 C 5.261719 24.304688 5.507812 23.601562 5.863281 22.957031 C 6.445312 21.898438 7.535156 21.351562 8.703125 21.820312 C 8.753906 21.839844 8.820312 21.828125 8.890625 21.832031 C 9.488281 20.644531 10.136719 19.488281 11.570312 19.222656 C 12.988281 18.960938 14.023438 19.753906 14.988281 20.65625 C 14.871094 20.664062 14.773438 20.636719 14.675781 20.601562 C 13.820312 20.304688 13.058594 20.457031 12.5 21.171875 C 12.128906 21.648438 11.828125 22.207031 11.609375 22.769531 C 11.132812 24.019531 10.972656 25.339844 10.925781 26.667969 C 10.742188 31.953125 11.753906 37.023438 13.769531 41.894531 C 14.492188 43.632812 15.363281 45.300781 16.695312 46.667969 C 17.488281 47.480469 18.371094 48.125 19.679688 47.765625 C 19.597656 47.894531 19.5625 47.960938 19.515625 48.019531 C 18.441406 49.382812 16.929688 49.589844 15.347656 48.589844 C 15.125 48.449219 14.910156 48.300781 14.703125 48.164062 C 13.472656 49.5 12.390625 49.601562 11 48.488281 C 10.472656 48.066406 10.007812 47.5625 9.464844 47.046875 C 9.410156 47.105469 9.347656 47.195312 9.265625 47.269531 Z M 6.089844 27.183594 C 6.632812 26.996094 7.140625 27.410156 7.128906 27.984375 C 7.035156 32.871094 8.0625 37.5625 9.632812 42.160156 C 9.75 42.5 9.667969 42.714844 9.394531 42.875 C 8.851562 43.191406 8.296875 43.257812 7.734375 42.863281 C 7.722656 42.914062 7.695312 42.96875 7.710938 42.996094 C 8.566406 44.558594 9.402344 46.148438 10.671875 47.425781 C 11.148438 47.902344 11.75 48.308594 12.363281 48.585938 C 13.085938 48.914062 13.765625 48.617188 14.332031 47.921875 C 13.820312 47.355469 13.296875 46.792969 12.792969 46.210938 C 11.199219 44.375 10.179688 42.238281 9.558594 39.910156 C 8.558594 36.171875 7.707031 32.410156 7.769531 28.5 C 7.800781 26.613281 8.039062 24.761719 8.703125 22.980469 C 8.796875 22.730469 8.742188 22.613281 8.507812 22.511719 C 7.824219 22.203125 7.035156 22.429688 6.601562 23.101562 C 6.035156 23.980469 5.8125 24.984375 5.621094 25.992188 C 5.511719 26.550781 5.4375 27.109375 5.347656 27.664062 C 5.601562 27.492188 5.824219 27.273438 6.089844 27.183594 Z M 5.308594 44.339844 C 5.90625 45.152344 6.476562 45.992188 7.15625 46.726562 C 7.992188 47.625 8.546875 47.558594 9.359375 46.679688 C 5.164062 40.234375 3.941406 33.207031 5.003906 25.691406 C 3.917969 25.359375 3.105469 25.703125 2.6875 26.753906 C 2.476562 27.285156 2.375 27.863281 2.320312 28.453125 C 2.523438 28.265625 2.695312 28.007812 2.929688 27.90625 C 3.164062 27.804688 3.480469 27.792969 3.730469 27.859375 C 4.03125 27.9375 4.046875 28.234375 4.027344 28.527344 C 3.714844 33.429688 4.589844 38.132812 6.390625 42.6875 C 6.476562 42.898438 6.484375 43.285156 6.355469 43.402344 C 6.152344 43.585938 5.808594 43.667969 5.519531 43.675781 C 5.3125 43.683594 5.101562 43.507812 4.804688 43.371094 C 4.992188 43.742188 5.113281 44.070312 5.308594 44.339844 Z M 15.203125 45.628906 C 14.492188 44.539062 13.925781 43.355469 13.300781 42.207031 C 13.203125 42.035156 13.140625 41.84375 13.058594 41.648438 C 12.433594 42.5 11.992188 42.609375 10.945312 42.117188 C 11.183594 42.582031 11.367188 42.976562 11.578125 43.351562 C 12.457031 44.914062 13.488281 46.359375 14.84375 47.554688 C 15.503906 48.132812 16.226562 48.597656 17.113281 48.769531 C 17.675781 48.878906 18.125 48.699219 18.554688 48.285156 C 16.988281 47.929688 16.003906 46.851562 15.203125 45.628906 Z M 10.292969 26.867188 C 10.40625 26.007812 10.496094 25.152344 10.640625 24.308594 C 10.835938 23.1875 11.144531 22.09375 11.8125 21.140625 C 12.316406 20.429688 12.695312 20.191406 13.535156 20.027344 C 12.957031 19.4375 11.675781 19.367188 10.839844 19.9375 C 10.511719 20.164062 10.210938 20.476562 9.996094 20.8125 C 9.148438 22.128906 8.847656 23.628906 8.648438 25.15625 C 8.566406 25.777344 8.515625 26.402344 8.4375 27.144531 C 9.105469 26.359375 9.445312 26.324219 10.292969 26.867188 Z M 10.292969 26.867188 " fill-opacity="1" fill-rule="nonzero"/><path fill="#ffffff" d="M 65.050781 47.492188 C 64.421875 48.011719 63.832031 48.601562 63.132812 49 C 62.226562 49.515625 61.320312 49.269531 60.609375 48.5 C 60.503906 48.386719 60.402344 48.273438 60.300781 48.164062 C 58.003906 49.597656 56.105469 49.449219 55.445312 47.886719 C 55.882812 47.839844 56.386719 47.886719 56.792969 47.714844 C 57.304688 47.5 57.789062 47.160156 58.191406 46.773438 C 59.28125 45.742188 60.023438 44.449219 60.675781 43.113281 C 62.253906 39.882812 63.183594 36.453125 63.71875 32.914062 C 64.148438 30.066406 64.316406 27.203125 63.8125 24.34375 C 63.636719 23.347656 63.367188 22.375 62.792969 21.515625 C 62.097656 20.476562 61.195312 20.21875 60.050781 20.726562 C 60.015625 20.742188 59.976562 20.742188 59.828125 20.769531 C 60.835938 19.863281 61.804688 19.082031 63.144531 19.1875 C 64.78125 19.316406 65.464844 20.59375 66.09375 21.777344 C 66.613281 21.75 67.09375 21.640625 67.542969 21.714844 C 68.488281 21.875 69.007812 22.589844 69.390625 23.398438 C 69.636719 23.921875 69.8125 24.480469 70.023438 25.039062 C 70.136719 25.039062 70.261719 25.042969 70.386719 25.039062 C 71.652344 25.007812 72.382812 25.449219 72.71875 26.664062 C 73 27.675781 73.21875 28.726562 73.261719 29.769531 C 73.457031 34.363281 72.558594 38.773438 70.800781 43.007812 C 70.183594 44.496094 69.429688 45.925781 68.230469 47.050781 C 67.15625 48.058594 66.363281 48.015625 65.546875 47.085938 C 65.53125 47.066406 65.496094 47.058594 65.445312 47.035156 C 65.316406 47.1875 65.203125 47.363281 65.050781 47.492188 Z M 67.023438 25.902344 C 67.398438 28.242188 67.292969 30.589844 66.941406 32.921875 C 66.503906 35.792969 65.921875 38.632812 64.976562 41.382812 C 64.230469 43.550781 63.023438 45.433594 61.433594 47.082031 C 61.171875 47.351562 60.929688 47.636719 60.679688 47.914062 C 61.226562 48.644531 61.972656 48.921875 62.761719 48.542969 C 63.332031 48.269531 63.886719 47.886719 64.328125 47.4375 C 65.609375 46.128906 66.449219 44.515625 67.300781 43.015625 C 66.863281 43.027344 66.410156 43.105469 65.976562 43.035156 C 65.371094 42.9375 65.238281 42.585938 65.429688 42.007812 C 66.9375 37.511719 67.945312 32.929688 67.875 28.15625 C 67.867188 27.691406 67.953125 27.332031 68.421875 27.1875 C 68.863281 27.050781 69.226562 27.203125 69.492188 27.582031 C 69.515625 27.617188 69.550781 27.644531 69.644531 27.746094 C 69.445312 26.148438 69.246094 24.636719 68.511719 23.265625 C 68.023438 22.359375 67.167969 22.144531 66.289062 22.644531 C 66.546875 23.757812 66.851562 24.816406 67.023438 25.902344 Z M 66.101562 47.097656 C 66.617188 47.453125 67 47.453125 67.480469 47.058594 C 68.675781 46.082031 69.507812 44.832031 70.191406 43.375 C 69.929688 43.5 69.746094 43.609375 69.550781 43.671875 C 69.207031 43.777344 68.898438 43.71875 68.644531 43.441406 C 68.410156 43.183594 68.496094 42.9375 68.609375 42.65625 C 70.425781 38.09375 71.304688 33.375 70.972656 28.453125 C 70.933594 27.882812 71.472656 27.558594 72.007812 27.859375 C 72.257812 28.003906 72.453125 28.242188 72.667969 28.429688 C 72.742188 27.734375 72.371094 26.566406 71.898438 26.070312 C 71.347656 25.496094 70.683594 25.5 69.992188 25.664062 C 71.070312 33.199219 69.835938 40.207031 65.632812 46.703125 C 65.742188 46.796875 65.910156 46.960938 66.101562 47.097656 Z M 61.976562 41.664062 C 60.6875 44.308594 59.589844 47.109375 56.511719 48.347656 C 56.871094 48.695312 57.3125 48.875 57.863281 48.773438 C 58.886719 48.589844 59.6875 48.011719 60.417969 47.320312 C 61.921875 45.890625 63.058594 44.199219 63.945312 42.328125 C 63.96875 42.277344 63.976562 42.21875 63.996094 42.140625 C 63.007812 42.617188 62.527344 42.5 61.976562 41.664062 Z M 64.925781 20.667969 C 64.164062 19.488281 62.519531 19.191406 61.371094 20.046875 C 62.378906 20.074219 62.957031 20.695312 63.402344 21.46875 C 64.15625 22.78125 64.40625 24.242188 64.574219 25.722656 C 64.617188 26.097656 64.644531 26.472656 64.675781 26.808594 C 65.011719 26.703125 65.355469 26.5 65.679688 26.523438 C 65.976562 26.546875 66.257812 26.820312 66.546875 26.980469 C 66.335938 24.832031 66.183594 22.609375 64.925781 20.667969 Z M 64.925781 20.667969 " fill-opacity="1" fill-rule="nonzero"/><path fill="#ffffff" d="M 32.335938 55.179688 C 36 55.472656 39.570312 55.695312 43.125 54.914062 C 43.566406 54.816406 43.679688 54.632812 43.679688 54.1875 C 43.65625 51.046875 43.671875 47.90625 43.671875 44.769531 C 43.671875 44.675781 43.660156 44.585938 43.648438 44.441406 C 41.597656 45.285156 39.46875 45.453125 37.183594 45.445312 C 37.183594 47.035156 37.183594 48.601562 37.183594 50.164062 C 37.128906 50.164062 37.074219 50.164062 37.019531 50.164062 C 36.941406 48.773438 36.839844 47.378906 36.792969 45.988281 C 36.78125 45.535156 36.636719 45.367188 36.191406 45.414062 C 35.929688 45.441406 35.664062 45.417969 35.335938 45.417969 C 35.28125 48.046875 35.226562 50.65625 35.171875 53.269531 C 35.152344 53.273438 35.128906 53.273438 35.109375 53.277344 C 34.976562 52.175781 34.84375 51.074219 34.71875 49.976562 C 34.550781 48.535156 34.382812 47.09375 34.21875 45.652344 C 34.191406 45.390625 34.125 45.195312 33.804688 45.207031 C 33.679688 45.210938 33.554688 45.164062 33.429688 45.144531 C 32.425781 44.980469 32.382812 44.980469 32.367188 46.046875 C 32.332031 48.664062 32.34375 51.285156 32.335938 53.902344 C 32.335938 54.308594 32.335938 54.71875 32.335938 55.179688 Z M 32.335938 55.179688 " fill-opacity="1" fill-rule="nonzero"/><path fill="#ffffff" d="M 38.390625 32.167969 C 38.570312 32.140625 38.753906 32.117188 38.984375 32.082031 C 39.027344 32.933594 39.066406 33.761719 39.109375 34.632812 C 38.820312 34.605469 38.609375 34.585938 38.394531 34.570312 C 38.378906 34.605469 38.363281 34.640625 38.347656 34.675781 C 38.683594 34.824219 39.019531 34.976562 39.351562 35.125 C 39.351562 35.148438 39.347656 35.167969 39.347656 35.191406 C 39.046875 35.171875 38.746094 35.148438 38.449219 35.128906 C 38.429688 35.164062 38.40625 35.199219 38.386719 35.230469 C 38.652344 35.371094 38.90625 35.570312 39.1875 35.632812 C 40.03125 35.820312 40.953125 35.390625 41.34375 34.613281 C 41.707031 33.898438 41.886719 33.164062 41.574219 32.34375 C 41.40625 31.902344 41.339844 31.378906 41.378906 30.90625 C 41.542969 28.910156 41.757812 26.921875 41.964844 24.933594 C 42.027344 24.367188 42.109375 23.804688 42.214844 23.25 C 42.277344 22.914062 42.402344 22.59375 42.515625 22.207031 C 42 21.535156 41.328125 20.996094 40.363281 20.960938 C 39.828125 20.941406 39.289062 20.941406 38.757812 20.964844 C 38.027344 20.988281 37.605469 21.449219 37.296875 22.078125 C 38.058594 21.191406 39 21 40.074219 21.320312 C 39.398438 21.421875 38.59375 21.207031 38.308594 22.035156 C 38.757812 22.035156 39.300781 22.035156 39.894531 22.035156 C 39.824219 22.089844 39.800781 22.117188 39.773438 22.125 C 38.53125 22.429688 38.4375 22.273438 38.378906 23.765625 C 38.300781 25.78125 38.363281 27.800781 38.371094 29.820312 C 38.371094 30.101562 38.402344 30.382812 38.417969 30.699219 C 38.828125 30.734375 39.226562 30.769531 39.636719 30.804688 C 39.101562 31.023438 38.601562 31.226562 38.101562 31.429688 C 38.117188 31.441406 38.132812 31.453125 38.144531 31.464844 C 38.773438 31.414062 39.402344 31.304688 40.03125 31.316406 C 40.761719 31.332031 40.980469 31.558594 41.070312 32.273438 C 41.136719 32.789062 41.175781 33.3125 41.148438 33.828125 C 41.117188 34.457031 40.785156 34.800781 40.121094 34.957031 C 40.75 34.683594 40.789062 34.148438 40.761719 33.589844 C 40.746094 33.273438 40.730469 32.960938 40.703125 32.644531 C 40.632812 31.832031 40.539062 31.734375 39.707031 31.78125 C 39.253906 31.808594 38.808594 31.933594 38.359375 32.011719 C 38.371094 32.0625 38.378906 32.117188 38.390625 32.167969 Z M 38.390625 32.167969 " fill-opacity="1" fill-rule="nonzero"/><path fill="#ffffff" d="M 32.296875 22.796875 C 33.042969 22.460938 33.796875 22.183594 34.605469 22.226562 C 33.914062 22.511719 33.214844 22.800781 32.511719 23.089844 C 32.53125 23.167969 32.550781 23.246094 32.566406 23.324219 C 33.046875 23.324219 33.527344 23.324219 34.082031 23.324219 C 33.515625 23.566406 33.03125 23.769531 32.550781 23.976562 C 32.558594 24.015625 32.566406 24.054688 32.574219 24.09375 C 32.699219 24.105469 32.824219 24.117188 32.953125 24.128906 C 33.316406 26.285156 33.675781 28.445312 34.039062 30.625 C 34.335938 30.625 34.601562 30.625 34.996094 30.625 C 34.445312 30.941406 33.949219 31.148438 33.726562 31.761719 C 34.886719 30.902344 35.902344 30.847656 36.390625 31.5625 C 37.03125 32.503906 36.984375 33.984375 36.25 34.410156 C 36.792969 33.785156 36.480469 33.140625 36.308594 32.515625 C 36.007812 31.433594 35.109375 31.21875 34.261719 32.011719 C 34.34375 32.082031 34.472656 32.144531 34.496094 32.230469 C 34.574219 32.550781 34.609375 32.878906 34.675781 33.203125 C 34.742188 33.507812 34.824219 33.808594 34.910156 34.148438 C 34.746094 34.148438 34.617188 34.148438 34.488281 34.148438 C 34.476562 34.175781 34.464844 34.207031 34.453125 34.238281 C 34.691406 34.363281 34.925781 34.488281 35.164062 34.613281 C 35.15625 34.632812 35.152344 34.652344 35.148438 34.671875 C 34.882812 34.613281 34.617188 34.558594 34.347656 34.503906 C 34.191406 35.019531 34.582031 35.195312 34.941406 35.261719 C 35.636719 35.390625 36.300781 35.222656 36.855469 34.777344 C 37.214844 34.488281 37.292969 34.0625 37.261719 33.613281 C 37.058594 30.847656 36.855469 28.078125 36.667969 25.308594 C 36.617188 24.566406 36.628906 23.824219 36.601562 23.082031 C 36.59375 22.933594 36.59375 22.746094 36.511719 22.636719 C 36.003906 21.96875 35.332031 21.589844 34.476562 21.644531 C 33.585938 21.703125 32.789062 21.964844 32.296875 22.796875 Z M 32.296875 22.796875 " fill-opacity="1" fill-rule="nonzero"/><path fill="#ffffff" d="M 30.042969 31.675781 C 29.542969 31.210938 29.027344 30.722656 28.488281 30.253906 C 28.378906 30.160156 28.183594 30.105469 28.039062 30.117188 C 24.566406 30.480469 21.136719 31.101562 17.730469 31.851562 C 17.367188 31.929688 17.214844 32.101562 17.179688 32.4375 C 17.082031 33.359375 17.253906 34.222656 17.703125 35.035156 C 17.890625 35.375 18.121094 35.46875 18.515625 35.390625 C 20.945312 34.914062 23.371094 34.421875 25.816406 34.023438 C 27.574219 33.738281 29.355469 33.597656 31.125 33.394531 C 31.296875 33.375 31.46875 33.367188 31.65625 33.351562 C 31.710938 33.003906 31.558594 32.929688 31.261719 32.957031 C 27.65625 33.265625 24.089844 33.828125 20.550781 34.582031 C 19.933594 34.714844 19.3125 34.828125 18.703125 34.980469 C 18.332031 35.070312 18.082031 34.976562 17.941406 34.628906 C 17.78125 34.242188 17.640625 33.851562 17.523438 33.546875 C 17.871094 33.546875 18.167969 33.59375 18.445312 33.539062 C 20.921875 33.074219 23.390625 32.554688 25.878906 32.128906 C 27.199219 31.902344 28.542969 31.832031 29.878906 31.691406 C 29.960938 31.679688 30.046875 31.675781 30.042969 31.675781 Z M 30.042969 31.675781 " fill-opacity="1" fill-rule="nonzero"/><path fill="#ffffff" d="M 52.230469 30.882812 C 52.230469 31.398438 52.214844 31.902344 52.242188 32.402344 C 52.246094 32.507812 52.390625 32.679688 52.496094 32.703125 C 53.945312 33.011719 55.394531 33.3125 56.851562 33.589844 C 57.03125 33.621094 57.238281 33.5 57.464844 33.441406 C 57.417969 33.644531 57.382812 33.875 57.3125 34.097656 C 57.027344 34.984375 56.847656 35.082031 55.957031 34.898438 C 54.796875 34.65625 53.640625 34.410156 52.480469 34.183594 C 52.324219 34.152344 52.144531 34.226562 51.976562 34.25 C 51.980469 34.3125 51.984375 34.378906 51.988281 34.441406 C 52.664062 34.582031 53.335938 34.722656 54.007812 34.863281 C 54.886719 35.042969 55.765625 35.242188 56.648438 35.394531 C 56.808594 35.421875 57.070312 35.332031 57.15625 35.207031 C 57.765625 34.34375 57.960938 33.367188 57.792969 32.332031 C 57.769531 32.167969 57.558594 31.933594 57.398438 31.898438 C 55.765625 31.542969 54.125 31.226562 52.488281 30.898438 C 52.429688 30.886719 52.367188 30.890625 52.230469 30.882812 Z M 52.230469 30.882812 " fill-opacity="1" fill-rule="nonzero"/><path fill="#ffffff" d="M 31.699219 30.539062 C 31.304688 30.496094 30.878906 30.542969 30.53125 30.394531 C 29.75 30.070312 29.324219 29.359375 28.921875 28.65625 C 28.820312 28.480469 28.714844 28.304688 28.566406 28.160156 C 28.988281 29.160156 29.371094 30.203125 30.359375 30.820312 C 30.898438 31.15625 31.480469 31.09375 32.039062 30.824219 C 32.410156 30.644531 32.566406 30.328125 32.480469 29.925781 C 32.078125 28.09375 31.671875 26.265625 31.261719 24.4375 C 31.230469 24.296875 31.171875 24.167969 31.121094 24.035156 C 30.675781 22.839844 29.941406 22.5625 28.824219 23.164062 C 28.199219 23.5 27.71875 24.117188 27.558594 24.730469 C 27.855469 24.464844 28.171875 24.0625 28.585938 23.847656 C 28.988281 23.636719 29.492188 23.613281 29.949219 23.503906 C 29.964844 23.554688 29.976562 23.601562 29.992188 23.648438 C 29.738281 23.761719 29.480469 23.855469 29.238281 23.984375 C 29.007812 24.105469 28.789062 24.257812 28.601562 24.484375 C 28.894531 24.433594 29.183594 24.378906 29.472656 24.328125 C 28.894531 24.789062 29.042969 25.300781 29.324219 25.816406 C 29.578125 26.289062 29.839844 26.757812 30.128906 27.210938 C 30.234375 27.378906 30.429688 27.492188 30.601562 27.644531 C 30.453125 27.839844 29.949219 27.925781 30.195312 28.4375 C 30.480469 27.910156 30.84375 27.691406 31.289062 27.769531 C 31.382812 27.785156 31.476562 27.808594 31.558594 27.851562 C 32.113281 28.132812 32.429688 29.953125 32 30.390625 C 31.921875 30.46875 31.789062 30.5 31.679688 30.550781 Z M 31.699219 30.539062 " fill-opacity="1" fill-rule="nonzero"/><path fill="#ffffff" d="M 47.066406 24.996094 C 47.015625 24.492188 46.964844 23.984375 46.917969 23.480469 C 46.957031 23.464844 47 23.445312 47.042969 23.429688 C 47.300781 24.085938 47.558594 24.742188 47.847656 25.476562 C 47.984375 25.523438 48.238281 25.605469 48.492188 25.6875 C 48.625 23.429688 46.46875 21.277344 44.410156 21.644531 C 44.050781 21.707031 43.714844 21.925781 43.410156 22.175781 C 43.703125 22.113281 43.996094 22.050781 44.285156 21.988281 C 43.53125 22.632812 43.433594 22.796875 43.496094 23.386719 C 44.535156 23.113281 45.644531 23.371094 47.066406 24.996094 Z M 47.066406 24.996094 " fill-opacity="1" fill-rule="nonzero"/><path fill="#ffffff" d="M 54.839844 35.707031 C 54.621094 35.660156 54.46875 35.628906 54.242188 35.578125 C 54.160156 36.230469 54.0625 36.859375 54.003906 37.496094 C 53.789062 39.792969 53.6875 42.09375 54.246094 44.359375 C 54.371094 44.859375 54.566406 45.355469 54.820312 45.800781 C 55.421875 46.875 56.398438 47.0625 57.34375 46.265625 C 57.792969 45.882812 58.210938 45.421875 58.519531 44.921875 C 59.089844 44.007812 59.570312 43.035156 60.085938 42.085938 C 60.039062 42.058594 59.992188 42.035156 59.949219 42.007812 C 59.769531 42.355469 59.621094 42.722656 59.40625 43.042969 C 58.816406 43.914062 58.277344 44.839844 57.570312 45.609375 C 56.46875 46.8125 55.484375 46.566406 54.945312 45.023438 C 54.402344 43.480469 54.359375 41.863281 54.433594 40.257812 C 54.492188 38.921875 54.660156 37.589844 54.78125 36.257812 C 54.796875 36.085938 54.816406 35.917969 54.839844 35.707031 Z M 54.839844 35.707031 " fill-opacity="1" fill-rule="nonzero"/><path fill="#ffffff" d="M 20.792969 35.578125 C 20.539062 35.628906 20.371094 35.664062 20.171875 35.703125 C 20.265625 36.515625 20.367188 37.308594 20.445312 38.101562 C 20.636719 40.117188 20.722656 42.136719 20.296875 44.132812 C 20.183594 44.675781 19.980469 45.226562 19.710938 45.714844 C 19.324219 46.425781 18.679688 46.589844 18.039062 46.09375 C 17.453125 45.632812 16.929688 45.066406 16.480469 44.472656 C 15.996094 43.835938 15.632812 43.109375 15.222656 42.429688 C 15.214844 42.441406 15.183594 42.472656 15.1875 42.488281 C 15.722656 43.773438 16.351562 45.007812 17.347656 46.007812 C 17.566406 46.226562 17.835938 46.414062 18.113281 46.558594 C 18.742188 46.890625 19.390625 46.820312 19.820312 46.257812 C 20.183594 45.78125 20.492188 45.21875 20.667969 44.648438 C 21.242188 42.78125 21.222656 40.851562 21.113281 38.925781 C 21.050781 37.828125 20.90625 36.734375 20.792969 35.578125 Z M 20.792969 35.578125 " fill-opacity="1" fill-rule="nonzero"/><path fill="#ffffff" d="M 63.027344 28.164062 C 63.105469 26.558594 63.101562 25.03125 62.675781 23.542969 C 62.5625 23.136719 62.390625 22.734375 62.171875 22.378906 C 61.652344 21.535156 60.765625 21.300781 59.984375 21.902344 C 59.359375 22.382812 58.789062 22.980469 58.324219 23.621094 C 57.144531 25.25 55.738281 28.679688 55.304688 30.765625 C 55.480469 30.804688 55.65625 30.84375 55.855469 30.890625 C 56.140625 30.019531 56.40625 29.164062 56.691406 28.320312 C 57.238281 26.71875 57.882812 25.160156 58.839844 23.757812 C 59.191406 23.246094 59.617188 22.753906 60.09375 22.355469 C 60.816406 21.753906 61.5625 21.886719 61.960938 22.742188 C 62.328125 23.53125 62.582031 24.394531 62.746094 25.25 C 62.921875 26.171875 62.933594 27.125 63.027344 28.164062 Z M 63.027344 28.164062 " fill-opacity="1" fill-rule="nonzero"/><path fill="#ffffff" d="M 11.929688 28.152344 C 12.097656 26.855469 12.222656 25.554688 12.453125 24.269531 C 12.550781 23.710938 12.796875 23.152344 13.085938 22.65625 C 13.511719 21.914062 14.199219 21.746094 14.832031 22.3125 C 15.46875 22.882812 16.039062 23.5625 16.488281 24.289062 C 17.652344 26.164062 18.335938 28.25 18.964844 30.351562 C 19.015625 30.519531 19.066406 30.683594 19.121094 30.863281 C 19.242188 30.851562 19.351562 30.847656 19.457031 30.828125 C 19.53125 30.816406 19.601562 30.785156 19.75 30.734375 C 19.414062 29.734375 19.117188 28.742188 18.746094 27.773438 C 18.039062 25.914062 17.246094 24.089844 15.875 22.597656 C 15.621094 22.320312 15.324219 22.066406 15.007812 21.871094 C 14.136719 21.347656 13.265625 21.539062 12.800781 22.445312 C 12.480469 23.066406 12.234375 23.761719 12.144531 24.449219 C 11.984375 25.675781 11.964844 26.917969 11.886719 28.15625 C 11.902344 28.152344 11.914062 28.152344 11.929688 28.152344 Z M 11.929688 28.152344 " fill-opacity="1" fill-rule="nonzero"/><path fill="#ffffff" d="M 17.296875 30.253906 C 17.167969 29.871094 16.96875 29.527344 16.519531 29.511719 C 16.0625 29.492188 15.796875 29.832031 15.722656 30.195312 C 15.5625 31.007812 15.390625 31.839844 15.40625 32.65625 C 15.433594 34.136719 15.792969 35.5625 16.484375 36.878906 C 16.730469 37.347656 17.046875 37.804688 17.417969 38.171875 C 18.039062 38.792969 18.71875 38.542969 18.890625 37.675781 C 18.929688 37.464844 18.941406 37.253906 18.898438 37.019531 C 18.785156 37.273438 18.6875 37.535156 18.550781 37.773438 C 18.371094 38.089844 18.109375 38.144531 17.875 37.84375 C 17.671875 37.585938 17.480469 37.304688 17.351562 37.007812 C 16.519531 35.105469 16.097656 33.113281 16.125 31.035156 C 16.125 30.832031 16.152344 30.625 16.195312 30.425781 C 16.332031 29.792969 16.589844 29.707031 17.113281 30.105469 C 17.175781 30.15625 17.234375 30.207031 17.296875 30.253906 Z M 17.296875 30.253906 " fill-opacity="1" fill-rule="nonzero"/><path fill="#ffffff" d="M 56.121094 37.023438 C 56.097656 37.589844 56.039062 38.230469 56.671875 38.453125 C 57.285156 38.667969 57.671875 38.175781 57.988281 37.746094 C 58.941406 36.453125 59.382812 34.953125 59.527344 33.386719 C 59.609375 32.492188 59.492188 31.574219 59.453125 30.667969 C 59.445312 30.515625 59.371094 30.363281 59.304688 30.222656 C 59.140625 29.875 58.96875 29.511719 58.511719 29.511719 C 58.054688 29.507812 57.839844 29.84375 57.644531 30.203125 C 57.6875 30.214844 57.71875 30.238281 57.734375 30.230469 C 57.996094 30.121094 58.257812 30.007812 58.519531 29.894531 C 58.636719 30.191406 58.835938 30.480469 58.859375 30.789062 C 58.984375 32.316406 58.691406 33.800781 58.285156 35.261719 C 58.117188 35.867188 57.867188 36.449219 57.640625 37.035156 C 57.574219 37.210938 57.492188 37.390625 57.371094 37.527344 C 57.199219 37.71875 56.984375 37.871094 56.785156 38.035156 C 56.621094 37.839844 56.441406 37.65625 56.292969 37.449219 C 56.207031 37.324219 56.175781 37.167969 56.121094 37.023438 Z M 56.121094 37.023438 " fill-opacity="1" fill-rule="nonzero"/><path fill="#ffffff" d="M 44.875 23.570312 C 44.59375 24.234375 44.339844 24.738281 44.179688 25.273438 C 44.128906 25.445312 44.253906 25.777344 44.40625 25.890625 C 44.96875 26.308594 45.554688 26.710938 46.179688 27.027344 C 46.632812 27.261719 47.207031 26.742188 47.125 26.148438 C 47.070312 25.785156 46.890625 25.378906 46.640625 25.113281 C 46.132812 24.585938 45.539062 24.140625 44.875 23.570312 Z M 44.875 23.570312 " fill-opacity="1" fill-rule="nonzero"/><path fill="#ffffff" d="M 42.332031 29.996094 C 42.589844 29.902344 42.730469 29.847656 42.914062 29.78125 C 42.914062 30.578125 42.914062 31.339844 42.914062 32.144531 C 42.78125 32.113281 42.652344 32.085938 42.40625 32.03125 C 42.566406 32.195312 42.660156 32.277344 42.738281 32.375 C 42.8125 32.476562 42.867188 32.59375 42.933594 32.703125 C 42.828125 32.765625 42.722656 32.824219 42.601562 32.890625 C 42.980469 33.175781 43.386719 33.121094 43.792969 32.953125 C 44.757812 32.554688 45.148438 31.582031 45.210938 30.722656 C 45.21875 30.625 45.082031 30.496094 44.984375 30.421875 C 44.816406 30.292969 44.621094 30.191406 44.472656 30.097656 C 44.414062 30.726562 44.371094 31.34375 44.277344 31.953125 C 44.253906 32.113281 44.070312 32.246094 43.90625 32.347656 C 44.378906 31.601562 44.179688 30.832031 44.023438 30.097656 C 43.894531 29.480469 42.984375 29.394531 42.332031 29.996094 Z M 42.332031 29.996094 " fill-opacity="1" fill-rule="nonzero"/><path fill="#ffffff" d="M 73.675781 35 C 73.558594 35.65625 73.449219 36.289062 73.324219 36.988281 C 73.539062 36.988281 73.734375 36.988281 73.984375 36.988281 C 73.726562 37.84375 73.765625 38.847656 72.785156 39.371094 C 73.035156 39.613281 73.191406 39.632812 73.386719 39.378906 C 73.539062 39.183594 73.667969 38.960938 73.765625 38.730469 C 74.175781 37.78125 74.378906 36.785156 74.316406 35.746094 C 74.28125 35.15625 74.207031 35.085938 73.675781 35 Z M 73.675781 35 " fill-opacity="1" fill-rule="nonzero"/><path fill="#ffffff" d="M 2.300781 39.382812 C 1.613281 39.105469 1.078125 38.003906 1.078125 36.996094 C 1.261719 36.996094 1.445312 36.996094 1.671875 36.996094 C 1.554688 36.304688 1.445312 35.671875 1.335938 35.027344 C 0.972656 34.960938 0.777344 35.105469 0.734375 35.449219 C 0.570312 36.824219 0.835938 38.113281 1.550781 39.300781 C 1.734375 39.605469 1.980469 39.625 2.300781 39.382812 Z M 2.300781 39.382812 " fill-opacity="1" fill-rule="nonzero"/><path fill="#ffffff" d="M 31.679688 30.550781 C 31.988281 30.214844 32.03125 29.84375 31.855469 29.425781 C 31.742188 29.148438 31.65625 28.863281 31.5625 28.578125 C 31.445312 28.21875 31.230469 28.101562 30.867188 28.289062 C 31.058594 28.925781 31.246094 29.566406 31.453125 30.199219 C 31.492188 30.324219 31.613281 30.425781 31.699219 30.539062 C 31.699219 30.539062 31.679688 30.550781 31.679688 30.550781 Z M 31.679688 30.550781 " fill-opacity="1" fill-rule="nonzero"/><path fill="#ffffff" d="M 42.78125 27.496094 C 42.5625 28.171875 42.957031 28.984375 42.230469 29.445312 C 42.6875 29.34375 43.132812 29.242188 43.589844 29.140625 C 43.339844 28.636719 43.070312 28.082031 42.78125 27.496094 Z M 42.78125 27.496094 " fill-opacity="1" fill-rule="nonzero"/><path fill="#ff921b" d="M 5.347656 27.664062 C 5.601562 27.492188 5.824219 27.273438 6.089844 27.183594 C 6.632812 26.996094 7.140625 27.410156 7.128906 27.984375 C 7.035156 32.871094 8.0625 37.5625 9.632812 42.160156 C 9.75 42.5 9.667969 42.714844 9.394531 42.875 C 8.851562 43.191406 8.296875 43.257812 7.734375 42.863281 C 7.722656 42.914062 7.695312 42.96875 7.710938 42.996094 C 8.566406 44.558594 9.402344 46.148438 10.671875 47.425781 C 11.148438 47.902344 11.75 48.308594 12.363281 48.585938 C 13.085938 48.914062 13.765625 48.617188 14.332031 47.921875 C 13.820312 47.355469 13.296875 46.792969 12.792969 46.210938 C 11.199219 44.375 10.179688 42.238281 9.558594 39.910156 C 8.558594 36.171875 7.707031 32.410156 7.769531 28.5 C 7.800781 26.613281 8.039062 24.761719 8.703125 22.980469 C 8.796875 22.730469 8.742188 22.613281 8.507812 22.511719 C 7.824219 22.203125 7.035156 22.429688 6.601562 23.101562 C 6.035156 23.980469 5.8125 24.984375 5.621094 25.992188 C 5.511719 26.546875 5.4375 27.109375 5.347656 27.664062 Z M 5.347656 27.664062 " fill-opacity="1" fill-rule="nonzero"/><path fill="#ff921b" d="M 4.804688 43.371094 C 4.992188 43.742188 5.113281 44.070312 5.308594 44.339844 C 5.90625 45.152344 6.476562 45.992188 7.15625 46.726562 C 7.992188 47.625 8.546875 47.558594 9.359375 46.679688 C 5.164062 40.234375 3.941406 33.207031 5.003906 25.691406 C 3.917969 25.359375 3.105469 25.703125 2.6875 26.753906 C 2.476562 27.285156 2.375 27.863281 2.320312 28.453125 C 2.523438 28.265625 2.695312 28.007812 2.929688 27.90625 C 3.164062 27.804688 3.480469 27.792969 3.730469 27.859375 C 4.03125 27.9375 4.046875 28.234375 4.027344 28.527344 C 3.714844 33.429688 4.589844 38.132812 6.390625 42.6875 C 6.476562 42.898438 6.484375 43.285156 6.355469 43.402344 C 6.152344 43.585938 5.808594 43.667969 5.519531 43.675781 C 5.3125 43.6875 5.101562 43.507812 4.804688 43.371094 Z M 4.804688 43.371094 " fill-opacity="1" fill-rule="nonzero"/><path fill="#ff921b" d="M 18.554688 48.285156 C 16.988281 47.929688 16.003906 46.851562 15.203125 45.628906 C 14.492188 44.539062 13.925781 43.355469 13.300781 42.207031 C 13.203125 42.035156 13.140625 41.84375 13.058594 41.648438 C 12.433594 42.5 11.992188 42.609375 10.945312 42.117188 C 11.183594 42.582031 11.367188 42.976562 11.578125 43.351562 C 12.457031 44.914062 13.488281 46.359375 14.84375 47.554688 C 15.503906 48.132812 16.226562 48.597656 17.113281 48.769531 C 17.675781 48.878906 18.125 48.699219 18.554688 48.285156 Z M 18.554688 48.285156 " fill-opacity="1" fill-rule="nonzero"/><path fill="#ff921b" d="M 8.4375 27.144531 C 9.105469 26.359375 9.445312 26.324219 10.292969 26.867188 C 10.40625 26.007812 10.496094 25.152344 10.640625 24.308594 C 10.835938 23.1875 11.144531 22.09375 11.8125 21.140625 C 12.316406 20.429688 12.695312 20.191406 13.535156 20.027344 C 12.957031 19.4375 11.675781 19.367188 10.839844 19.9375 C 10.511719 20.164062 10.210938 20.476562 9.996094 20.8125 C 9.148438 22.128906 8.847656 23.628906 8.648438 25.15625 C 8.566406 25.777344 8.515625 26.402344 8.4375 27.144531 Z M 8.4375 27.144531 " fill-opacity="1" fill-rule="nonzero"/><path fill="#ff921b" d="M 66.289062 22.644531 C 66.546875 23.757812 66.851562 24.816406 67.023438 25.902344 C 67.398438 28.242188 67.292969 30.589844 66.941406 32.921875 C 66.503906 35.792969 65.921875 38.632812 64.976562 41.382812 C 64.230469 43.550781 63.023438 45.433594 61.433594 47.082031 C 61.171875 47.351562 60.929688 47.636719 60.679688 47.914062 C 61.226562 48.644531 61.972656 48.921875 62.761719 48.542969 C 63.332031 48.269531 63.886719 47.886719 64.328125 47.4375 C 65.609375 46.128906 66.449219 44.515625 67.300781 43.015625 C 66.863281 43.027344 66.410156 43.105469 65.976562 43.035156 C 65.371094 42.9375 65.238281 42.585938 65.429688 42.007812 C 66.9375 37.511719 67.945312 32.929688 67.875 28.15625 C 67.867188 27.691406 67.953125 27.332031 68.421875 27.1875 C 68.863281 27.050781 69.226562 27.203125 69.492188 27.582031 C 69.515625 27.617188 69.550781 27.644531 69.644531 27.746094 C 69.445312 26.148438 69.246094 24.636719 68.511719 23.265625 C 68.023438 22.359375 67.167969 22.144531 66.289062 22.644531 Z M 66.289062 22.644531 " fill-opacity="1" fill-rule="nonzero"/><path fill="#ff921b" d="M 65.632812 46.703125 C 65.742188 46.796875 65.910156 46.960938 66.101562 47.097656 C 66.617188 47.453125 67 47.453125 67.480469 47.058594 C 68.675781 46.082031 69.507812 44.832031 70.191406 43.375 C 69.929688 43.5 69.746094 43.609375 69.550781 43.671875 C 69.207031 43.777344 68.898438 43.71875 68.644531 43.441406 C 68.410156 43.183594 68.496094 42.9375 68.609375 42.65625 C 70.425781 38.09375 71.304688 33.375 70.972656 28.453125 C 70.933594 27.882812 71.472656 27.558594 72.007812 27.859375 C 72.257812 28.003906 72.453125 28.242188 72.667969 28.429688 C 72.742188 27.734375 72.371094 26.566406 71.898438 26.070312 C 71.347656 25.496094 70.683594 25.5 69.992188 25.664062 C 71.070312 33.199219 69.835938 40.207031 65.632812 46.703125 Z M 65.632812 46.703125 " fill-opacity="1" fill-rule="nonzero"/><path fill="#ff921b" d="M 63.996094 42.140625 C 63.007812 42.617188 62.527344 42.5 61.976562 41.664062 C 60.6875 44.308594 59.589844 47.109375 56.511719 48.347656 C 56.871094 48.695312 57.3125 48.875 57.863281 48.773438 C 58.886719 48.589844 59.6875 48.011719 60.417969 47.320312 C 61.921875 45.890625 63.058594 44.199219 63.945312 42.328125 C 63.96875 42.277344 63.976562 42.21875 63.996094 42.140625 Z M 63.996094 42.140625 " fill-opacity="1" fill-rule="nonzero"/><path fill="#ff921b" d="M 66.546875 26.980469 C 66.335938 24.832031 66.183594 22.609375 64.925781 20.667969 C 64.164062 19.488281 62.519531 19.191406 61.371094 20.046875 C 62.378906 20.074219 62.957031 20.695312 63.402344 21.46875 C 64.15625 22.78125 64.40625 24.242188 64.574219 25.722656 C 64.617188 26.097656 64.644531 26.472656 64.675781 26.808594 C 65.011719 26.703125 65.355469 26.5 65.679688 26.523438 C 65.976562 26.546875 66.257812 26.820312 66.546875 26.980469 Z M 66.546875 26.980469 " fill-opacity="1" fill-rule="nonzero"/></svg>